<svg width="117" height="102" viewBox="0 0 117 102" fill="none" xmlns="http://www.w3.org/2000/svg">
<path fill-rule="evenodd" clip-rule="evenodd" d="M58.5 0C90.8087 0 117 22.8335 117 51C117 79.1665 90.8087 102 58.5 102C26.1913 102 0 79.1665 0 51C0 22.8335 26.1913 0 58.5 0ZM51.1078 37L44.7353 44V65H57.4804V44L51.1078 37ZM71.8186 39.8H62.2598C61.3799 39.8 60.6667 40.4268 60.6667 41.2V63.6C60.6667 64.3732 61.3799 65 62.2598 65H71.8186C72.6985 65 73.4118 64.3732 73.4118 63.6V59.4H70.2255V56.6H73.4118V53.8H68.6323V51H73.4118V48.2H70.2255V45.4H73.4118V41.2C73.4118 40.4268 72.6985 39.8 71.8186 39.8ZM54.2941 59.4V62.2H47.9216V59.4H54.2941Z" fill="#403E3B"/>
</svg>
